<svg width="165" height="442" viewBox="0 0 165 442" fill="none" xmlns="http://www.w3.org/2000/svg">
<mask id="mask0_169_314" style="mask-type:alpha" maskUnits="userSpaceOnUse" x="60" y="360" width="105" height="82">
<path d="M164.042 441.86L71.1997 438.243C65.4481 438.019 60.9009 433.291 60.9009 427.535V416.452C60.9009 412.333 63.2625 408.578 66.9756 406.793L164.042 360.151V441.86Z" fill="black"/>
</mask>
<g mask="url(#mask0_169_314)">
<g filter="url(#filter0_f_169_314)">
<path d="M164.042 420.429L73.4008 435.732C66.8624 436.836 60.9009 431.796 60.9009 425.165V420.854C60.9009 414.772 65.9567 409.91 72.034 410.146L164.042 413.731V420.429Z" fill="url(#paint0_linear_169_314)" fill-opacity="0.5"/>
</g>
</g>
<path d="M88.8484 359.481H60.9009V429.136C60.9009 429.135 60.9009 429.136 60.9009 429.136C60.9009 433.944 67.1571 437.843 74.8746 437.843C82.5921 437.843 88.8484 433.945 88.8484 429.136C88.8484 429.136 88.8484 429.136 88.8484 429.136V359.481Z" fill="url(#paint1_linear_169_314)"/>
<ellipse cx="75" cy="334.5" rx="75" ry="37.5" fill="#77F2FC"/>
<rect y="38" width="150" height="296" fill="url(#paint2_linear_169_314)"/>
<ellipse cx="75" cy="37.5" rx="75" ry="37.5" fill="url(#paint3_linear_169_314)"/>
<defs>
<filter id="filter0_f_169_314" x="34.111" y="383.348" width="156.721" height="79.3256" filterUnits="userSpaceOnUse" color-interpolation-filters="sRGB">
<feFlood flood-opacity="0" result="BackgroundImageFix"/>
<feBlend mode="normal" in="SourceGraphic" in2="BackgroundImageFix" result="shape"/>
<feGaussianBlur stdDeviation="13.395" result="effect1_foregroundBlur_169_314"/>
</filter>
<linearGradient id="paint0_linear_169_314" x1="60.9009" y1="441.86" x2="164.042" y2="441.86" gradientUnits="userSpaceOnUse">
<stop/>
<stop offset="1" stop-opacity="0"/>
</linearGradient>
<linearGradient id="paint1_linear_169_314" x1="74.2958" y1="309.92" x2="74.8746" y2="437.843" gradientUnits="userSpaceOnUse">
<stop stop-color="#C897F9"/>
<stop offset="1" stop-color="#77F2FC"/>
</linearGradient>
<linearGradient id="paint2_linear_169_314" x1="75" y1="38" x2="75" y2="334" gradientUnits="userSpaceOnUse">
<stop stop-color="#C897F9"/>
<stop offset="1" stop-color="#77F2FC"/>
</linearGradient>
<linearGradient id="paint3_linear_169_314" x1="120.5" y1="85.5" x2="75" y2="-27.5" gradientUnits="userSpaceOnUse">
<stop stop-color="#77F2FC"/>
<stop offset="1" stop-color="#C897F9"/>
</linearGradient>
</defs>
</svg>
