<svg width="195" height="274" viewBox="0 0 195 274" fill="none" xmlns="http://www.w3.org/2000/svg">
<rect width="195" height="274" fill="#E5E5E5"/>
<g id="3D Shape">
<rect width="1920" height="1020" transform="translate(-74 -238)" fill="white"/>
<g id="Group 1784">
</g>
<g id="Boy">
<path id="Vector" fill-rule="evenodd" clip-rule="evenodd" d="M80.1395 31.5147C80.1395 30.3286 81.1013 29.3668 82.2881 29.3668H101.513C102.699 29.3668 103.661 30.3286 103.661 31.5147C103.661 32.7015 102.699 33.6633 101.513 33.6633H82.2881C81.1013 33.6633 80.1395 32.7015 80.1395 31.5147Z" fill="#114B5F"/>
<path id="Vector_2" fill-rule="evenodd" clip-rule="evenodd" d="M77.2859 11.9809C77.2859 10.843 78.2081 9.92078 79.346 9.92078H97.7869C98.9254 9.92078 99.8477 10.843 99.8477 11.9809C99.8477 13.1195 98.9254 14.0417 97.7869 14.0417H79.346C78.2081 14.0417 77.2859 13.1195 77.2859 11.9809Z" fill="#114B5F"/>
<path id="Vector_3" fill-rule="evenodd" clip-rule="evenodd" d="M77.2859 21.4652C77.2859 20.3267 78.2081 19.4044 79.346 19.4044H97.7869C98.9254 19.4044 99.8477 20.3267 99.8477 21.4652C99.8477 22.6031 98.9254 23.5254 97.7869 23.5254H79.346C78.2081 23.5254 77.2859 22.6031 77.2859 21.4652Z" fill="#114B5F"/>
<path id="Vector_4" fill-rule="evenodd" clip-rule="evenodd" d="M90.8908 52.4056C90.8908 51.2188 91.8526 50.2571 93.0394 50.2571H112.264C113.451 50.2571 114.413 51.2188 114.413 52.4056C114.413 53.5918 113.451 54.5542 112.264 54.5542H93.0394C91.8526 54.5542 90.8908 53.5918 90.8908 52.4056Z" fill="#114B5F"/>
<path id="Vector_5" fill-rule="evenodd" clip-rule="evenodd" d="M90.8908 62.295C90.8908 61.1082 91.8526 60.1465 93.0394 60.1465H112.264C113.451 60.1465 114.413 61.1082 114.413 62.295C114.413 63.4812 113.451 64.4429 112.264 64.4429H93.0394C91.8526 64.4429 90.8908 63.4812 90.8908 62.295Z" fill="#114B5F"/>
<path id="Vector_6" fill-rule="evenodd" clip-rule="evenodd" d="M90.8908 72.255C90.8908 71.0682 91.8526 70.1064 93.0394 70.1064H112.264C113.451 70.1064 114.413 71.0682 114.413 72.255C114.413 73.4411 113.451 74.4029 112.264 74.4029H93.0394C91.8526 74.4029 90.8908 73.4411 90.8908 72.255Z" fill="#114B5F"/>
<path id="Vector_7" d="M3.20746 207.036L54.0364 249.428C54.0364 249.428 96.1515 259.317 110.467 257.588C124.781 255.86 178.999 222.388 182.664 214.851C186.329 207.313 158.46 200.812 158.46 200.812L79.7621 195.833L40.1364 199.913L15.3095 205.584L3.20746 207.036Z" fill="#114B5F"/>
<path id="Vector_8" d="M3.20746 207.036L54.0364 249.428C54.0364 249.428 96.1515 259.317 110.467 257.588C124.781 255.86 178.999 222.388 182.664 214.851C186.329 207.313 158.46 200.812 158.46 200.812L79.7621 195.833L40.1364 199.913L15.3095 205.584L3.20746 207.036Z" fill="black" fill-opacity="0.67"/>
<path id="Vector_9" fill-rule="evenodd" clip-rule="evenodd" d="M157.78 164.254L139.43 118.11L161.724 109.244L183.226 163.315L183.413 164.026C184.764 169.186 182.36 173.18 181.917 173.917C181.907 173.933 181.898 173.947 181.891 173.961C181.084 175.31 180.15 176.381 179.529 177.049C178.217 178.463 176.593 179.887 175.08 181.137C171.955 183.718 167.891 186.71 164.031 189.451C160.119 192.227 156.206 194.894 153.285 196.859C151.821 197.843 150.597 198.657 149.736 199.227C149.306 199.512 148.965 199.736 148.731 199.89C148.614 199.967 148.523 200.027 148.46 200.068L148.361 200.133C148.361 200.133 148.36 200.134 141.794 190.094C135.229 180.053 135.229 180.053 135.228 180.053L135.305 180.004C135.339 179.98 135.386 179.95 135.445 179.912C135.476 179.891 135.51 179.869 135.548 179.844C135.765 179.702 136.085 179.49 136.494 179.22C137.314 178.677 138.488 177.896 139.897 176.949C142.722 175.049 146.455 172.504 150.142 169.887C152.941 167.9 155.6 165.951 157.78 164.254ZM161.943 160.728C161.943 160.729 161.941 160.731 161.94 160.731C161.987 160.677 161.993 160.674 161.943 160.728Z" fill="#C69C6D"/>
<path id="Vector_10" fill-rule="evenodd" clip-rule="evenodd" d="M29.4419 135.31L52.4906 141.973L46.1581 163.877C49.2222 166.065 53.1978 168.722 57.3154 171.399C61.8275 174.332 66.3617 177.192 69.7788 179.326C71.4846 180.391 72.9058 181.271 73.8977 181.883C74.394 182.189 74.7825 182.428 75.0457 182.591L75.4402 182.832H75.4408C75.4408 182.832 75.4408 182.832 69.1814 193.066C62.9219 203.3 62.9212 203.3 62.9212 203.3L62.8067 203.23C62.7618 203.202 62.7036 203.167 62.6326 203.123C62.5897 203.096 62.5415 203.067 62.4892 203.035C62.2126 202.865 61.8095 202.617 61.2978 202.301C60.2751 201.67 58.8184 200.768 57.0717 199.677C53.5836 197.5 48.9161 194.556 44.2393 191.515C39.5993 188.499 34.7985 185.29 31.1109 182.607C29.3053 181.294 27.5157 179.926 26.0931 178.666C25.4194 178.07 24.4978 177.21 23.6546 176.189C23.2414 175.688 22.581 174.832 21.9849 173.693C21.5087 172.781 20.3085 170.28 20.5684 166.905L20.6628 165.677L29.4419 135.31Z" fill="#C69C6D"/>
<path id="Vector_11" d="M82.8748 33.5275L79.8322 30.1385L80.5233 46.6666L83.0824 48.8794L82.8748 33.5275Z" fill="#754C24"/>
<path id="Vector_12" d="M135.101 187.794C133.197 194.327 127.008 198.62 120.219 198.162L85.2593 195.809C79.2777 195.406 74.1676 191.403 72.4001 185.675C68.9837 174.603 63.1542 155.533 58.0173 137.845L55.0744 146.318C52.8903 152.569 43.4435 151.743 38.1318 150.052C30.9394 147.563 24.992 144.519 27.5511 137.259L38.9616 104.34C43.8072 90.3414 81.1182 84.031 91.1082 81.3983C91.1524 81.3869 91.1966 81.3815 91.2421 81.3815C91.2883 81.3815 91.3345 81.3755 91.3794 81.3634C95.9812 80.1304 99.6876 79.5156 101.408 79.7908C104.243 80.3441 112.058 82.7645 120.979 85.8762C132.691 89.8806 157.09 92.9601 162.748 107.038L177.755 144.243C182.47 156.089 155.701 163.612 152.029 154.547L147.692 143.745C143.184 159.917 138.248 176.993 135.101 187.794Z" fill="#114B5F"/>
<path id="Vector_13" d="M120.84 32.6293L123.745 32.6983L122.431 47.9812L120.702 48.8117L120.84 32.6293Z" fill="#754C24"/>
<path id="Vector_14" d="M101.061 104.411C85.0871 105.034 81.7672 85.3245 83.9111 82.904C83.9111 82.904 87.438 82.4894 91.1725 81.3133C91.2415 81.3133 91.2415 81.3133 91.3104 81.3133C95.9444 80.0689 99.6783 79.4461 101.408 79.7227C104.243 80.2766 112.057 82.6964 120.978 85.8087C122.154 92.3782 114.339 103.927 101.061 104.411Z" fill="black" fill-opacity="0.35"/>
<path id="Vector_15" fill-rule="evenodd" clip-rule="evenodd" d="M84.5005 83.0713C84.7905 83.3197 84.824 83.7564 84.5755 84.0464C84.459 84.1824 84.2969 84.5648 84.2178 85.2868C84.1428 85.9719 84.1536 86.8567 84.2734 87.876C84.5146 89.9141 85.1856 92.4196 86.4052 94.8334C88.8371 99.6462 93.3941 104.018 101.035 103.721H101.037C107.508 103.486 112.629 100.572 115.983 96.9243C119.367 93.2461 120.866 88.9289 120.3 85.9378C120.228 85.5627 120.475 85.2011 120.85 85.1301C121.225 85.0584 121.587 85.3049 121.659 85.6806C122.337 89.2591 120.552 94.0009 117.001 97.8606C113.424 101.751 107.965 104.853 101.089 105.103C92.7558 105.427 87.7702 100.602 85.1709 95.4569C83.8743 92.8911 83.159 90.2282 82.8998 88.0381C82.7705 86.9444 82.7538 85.9512 82.8429 85.1361C82.9286 84.3565 83.1235 83.6151 83.5253 83.1463C83.7738 82.8563 84.2105 82.8228 84.5005 83.0713Z" fill="#114B5F"/>
<path id="Vector_16" fill-rule="evenodd" clip-rule="evenodd" d="M101.684 60.5337C108.309 60.5337 113.68 65.9044 113.68 72.5302V89.3349C113.68 95.96 108.309 101.331 101.684 101.331C95.0588 101.331 89.6874 95.96 89.6874 89.3349V72.5302C89.6874 65.9044 95.0588 60.5337 101.684 60.5337Z" fill="#C69C6D"/>
<path id="Vector_17" opacity="0.3" d="M113.716 72.5315V77.856C113.648 77.787 112.541 80.7607 111.366 80.9683C106.87 81.7981 96.6352 81.5905 92.6248 80.553C91.2411 80.2074 89.7891 75.2286 89.7201 75.0899V72.5315C89.7201 70.8022 90.0657 69.2115 90.6879 67.7595H112.679C113.371 69.2115 113.716 70.8022 113.716 72.5315Z" fill="#824400"/>
<path id="Vector_18" d="M59.7075 202.056C59.7075 202.056 28.173 173.011 16.9005 176.124C5.62839 179.235 -2.18609 198.945 1.61741 204.892C4.5219 209.525 32.6677 227.782 63.1654 240.437C71.6022 243.895 98.2956 227.643 77.4109 214.504C70.3571 210.078 63.9952 205.722 59.7075 202.056Z" fill="#C69C6C"/>
<path id="Vector_19" d="M182.456 216.717C177.823 222.803 154.656 233.038 131.558 241.751C129.622 242.512 100.508 251.917 91.8634 254.476C84.6716 256.55 80.7985 258.072 79.7617 257.657C76.5804 256.62 68.8348 264.227 65.9997 263.604C63.164 262.982 57.2863 245.485 57.2863 245.485C57.2863 245.485 81.629 242.374 88.1985 237.671C90.8956 235.735 103.897 227.505 118.488 218.17C139.719 204.546 164.337 188.571 165.652 186.151C167.864 182.071 177.201 175.501 184.392 181.448C191.515 187.395 191.446 204.892 182.456 216.717Z" fill="#C69C6C"/>
<path id="Vector_20" d="M160.604 265.818C157.907 266.441 133.772 258.972 130.314 260.217C122.707 263.26 122.016 262.706 120.079 259.594C119.665 258.903 119.319 258.142 119.042 257.312C117.936 254.131 117.59 250.051 117.728 248.322C117.866 246.109 124.021 244.933 125.612 241.822C125.612 241.822 146.22 239.609 154.242 236.635C155.487 236.151 156.316 237.188 157.146 238.226C158.737 240.3 162.748 242.997 163.716 246.316C166.136 254.615 163.923 264.988 160.604 265.818Z" fill="#114B5F"/>
<path id="Vector_21" d="M164.596 241.331C167.165 243.601 168.557 246.486 168.557 249.843C168.487 253.507 168.21 256.965 166.551 260.008C165.721 261.53 164.13 263.862 162.954 265.177C160.539 267.725 154.98 265.177 154.98 265.177L156.316 263.604C157.906 261.668 159.151 259.386 160.189 256.965C161.157 254.545 161.917 251.987 162.125 249.566C162.194 248.39 162.125 247.215 161.917 246.177C161.78 245.693 161.641 245.209 161.433 244.794L161.364 244.725V244.656L161.433 244.725L161.503 244.794C161.503 244.794 161.433 244.656 161.295 244.586C161.088 244.38 160.88 244.172 160.603 243.895C158.529 241.959 154.569 239.224 152.425 237.15L154.034 236.56C155.32 235.755 161.503 238.597 164.596 241.331Z" fill="#114B5F"/>
<path id="Vector_22" d="M120.84 29.3778V62.4338C120.84 62.8484 120.702 63.1947 120.563 63.5403L112.473 76.887C112.126 77.4402 111.504 77.8555 110.812 77.8555H105.695C105.695 77.8555 97.6041 77.8555 98.0187 77.8555H92.9012C92.21 77.8555 91.5878 77.5092 91.2415 76.887L83.1503 63.5403C82.9433 63.1947 82.8737 62.8484 82.8737 62.4338V32.628C82.8047 32.628 99.1948 17.7596 120.84 29.3778Z" fill="#C69C6D"/>
<path id="Vector_23" d="M120.839 48.6041C120.839 48.6041 122.085 46.5983 123.537 46.1147C125.473 45.4228 127.824 46.2527 128.032 49.2263C128.446 54.4129 124.505 63.2649 120.839 57.9398" fill="#C69C6D"/>
<path id="Vector_24" d="M82.9421 48.6041C82.9421 48.6041 81.6977 46.5983 80.245 46.1147C78.3087 45.4228 75.9579 46.2527 75.7503 49.2263C75.335 54.4129 79.2772 63.2649 82.9421 57.9398" fill="#C69C6D"/>
<path id="Vector_25" d="M94.3543 63.7491C94.3543 63.7491 96.9536 69.8767 99.9969 69.6001C101.996 69.4601 104.666 67.7382 106.199 66.625C106.684 66.2741 106.486 65.5461 105.895 65.459L94.3543 63.7491Z" fill="white"/>
<path id="Vector_26" fill-rule="evenodd" clip-rule="evenodd" d="M102.179 53.7664C102.344 53.6204 102.597 53.6352 102.743 53.8006L102.444 54.0658C102.743 53.8006 102.743 53.8006 102.743 53.8006L102.744 53.8013L102.745 53.8019L102.746 53.804L102.751 53.81L102.771 53.8334C102.789 53.8528 102.813 53.8817 102.843 53.9185C102.903 53.9915 102.988 54.0966 103.086 54.2272C103.283 54.4878 103.538 54.8534 103.771 55.2727C104.002 55.6886 104.218 56.1729 104.323 56.6665C104.428 57.1601 104.43 57.6972 104.185 58.1868C103.932 58.6924 103.485 58.9764 103.013 59.1278C102.545 59.2771 102.024 59.3073 101.556 59.2892C101.083 59.2704 100.64 59.2021 100.317 59.1392C100.155 59.1077 100.022 59.0769 99.9283 59.0541C99.8815 59.0427 99.8446 59.0333 99.8192 59.0266L99.789 59.0186L99.7803 59.0159L99.7776 59.0153H99.777C99.777 59.0153 99.7763 59.0146 99.8855 58.6301L99.7763 59.0146C99.564 58.955 99.4408 58.734 99.5004 58.5217C99.5606 58.3087 99.7817 58.1854 99.994 58.2451L99.9946 58.2457L100 58.2471L100.023 58.2531C100.045 58.2591 100.077 58.2672 100.119 58.2772C100.202 58.298 100.323 58.3254 100.471 58.3542C100.768 58.4125 101.168 58.4734 101.587 58.4902C102.009 58.5063 102.426 58.4755 102.769 58.3663C103.106 58.2578 103.342 58.0836 103.469 57.8291C103.605 57.5572 103.623 57.2217 103.541 56.8332C103.458 56.4454 103.281 56.0389 103.071 55.6598C102.862 55.2834 102.629 54.9499 102.448 54.7088C102.358 54.5889 102.28 54.4931 102.226 54.4275C102.199 54.3947 102.179 54.3699 102.165 54.3538L102.149 54.3357L102.145 54.3317L102.145 54.3311C101.999 54.1656 102.014 53.9131 102.179 53.7664Z" fill="#381B00"/>
<path id="Vector_27" fill-rule="evenodd" clip-rule="evenodd" d="M108.538 39.2899C108.945 38.2632 110.107 37.7609 111.134 38.1674L118.465 41.0721C119.491 41.4786 119.994 42.6406 119.586 43.6674C119.18 44.6941 118.018 45.1964 116.991 44.7899L109.661 41.8852C108.634 41.4786 108.132 40.3166 108.538 39.2899Z" fill="#1E0E00"/>
<path id="Vector_28" fill-rule="evenodd" clip-rule="evenodd" d="M96.6863 39.4581C97.0004 40.5163 96.3963 41.6294 95.3381 41.9435L87.1779 44.364C86.119 44.6774 85.0066 44.074 84.6924 43.0151C84.3783 41.9569 84.9818 40.8438 86.0406 40.5297L94.2009 38.1092C95.2597 37.7958 96.3722 38.3992 96.6863 39.4581Z" fill="#1E0E00"/>
<path id="Vector_29" fill-rule="evenodd" clip-rule="evenodd" d="M99.317 48.3382C99.317 48.3382 99.317 48.3382 98.8482 47.8413C98.3787 47.3443 98.3794 47.3443 98.3794 47.3443L98.3801 47.343L98.3821 47.341L98.3874 47.3363L98.4035 47.3216C98.4169 47.3095 98.435 47.2934 98.4578 47.274C98.5026 47.2352 98.5669 47.1816 98.648 47.1186C98.8087 46.9927 99.0404 46.8273 99.3284 46.6612C99.8957 46.3343 100.724 45.9821 101.683 45.9821C102.565 45.9821 103.421 46.3122 104.029 46.6163C104.341 46.7724 104.605 46.9304 104.798 47.055C104.894 47.1173 104.974 47.1729 105.035 47.2171C105.074 47.2452 105.155 47.3028 105.209 47.3584L104.243 48.3242C104.263 48.3443 104.277 48.3556 104.277 48.3556C104.277 48.3563 104.265 48.3463 104.235 48.3248C104.194 48.2954 104.133 48.2525 104.054 48.2016C103.897 48.0998 103.677 47.9679 103.418 47.8386C102.885 47.572 102.254 47.349 101.683 47.349C101.052 47.349 100.463 47.5848 100.01 47.8453C99.7879 47.9739 99.6091 48.1018 99.4872 48.1969C99.4269 48.2438 99.3807 48.282 99.3519 48.3074C99.3371 48.3201 99.3271 48.3289 99.3211 48.3342L99.3157 48.3396L99.317 48.3382Z" fill="#381B00"/>
<path id="Vector_30" fill-rule="evenodd" clip-rule="evenodd" d="M123.901 45.5359C124.105 45.9277 123.953 46.4106 123.561 46.6149L118.651 49.1733C118.259 49.3776 117.777 49.2256 117.572 48.8338C117.369 48.4427 117.521 47.9591 117.912 47.7555L122.822 45.1964C123.214 44.9921 123.697 45.1441 123.901 45.5359Z" fill="#381B00"/>
<path id="Vector_31" fill-rule="evenodd" clip-rule="evenodd" d="M79.7444 45.5359C79.948 45.1441 80.4315 44.9921 80.8227 45.1964L85.7332 47.7555C86.1244 47.9591 86.2764 48.4427 86.0728 48.8338C85.8685 49.2256 85.3857 49.3776 84.9938 49.1733L80.0839 46.6149C79.6921 46.4106 79.5401 45.9277 79.7444 45.5359Z" fill="#381B00"/>
<path id="Vector_32" d="M112.362 49.0361C112.362 49.6415 111.497 49.6415 110.459 49.6415C109.42 49.6415 108.642 49.6415 108.642 49.0361C108.642 48.4306 109.42 47.5653 110.459 47.5653C111.41 47.5653 112.362 48.4306 112.362 49.0361Z" fill="black"/>
<path id="Vector_33" d="M94.7682 48.8948C94.7682 49.5003 93.9036 49.5003 92.8648 49.5003C91.8267 49.5003 91.0478 49.5003 91.0478 48.8948C91.0478 48.2894 91.8267 47.4241 92.8648 47.4241C93.8165 47.4241 94.7682 48.2894 94.7682 48.8948Z" fill="black"/>
<path id="Vector_34" fill-rule="evenodd" clip-rule="evenodd" d="M113.41 48.5499C111.592 47.7053 109.703 47.7616 107.711 48.5586C107.506 48.6403 107.274 48.5405 107.191 48.3356C107.109 48.1306 107.209 47.8982 107.414 47.8159C109.571 46.9532 111.693 46.8708 113.747 47.8246C113.948 47.9177 114.035 48.1554 113.942 48.3557C113.849 48.5559 113.611 48.643 113.41 48.5499Z" fill="#381B00"/>
<path id="Vector_35" d="M55.8343 192.169L29.1408 234.007C29.1408 234.007 -5.091 208.766 0.648809 196.733C6.38868 184.7 8.73963 168.102 33.2209 180.066C47.7431 187.12 55.8343 192.169 55.8343 192.169Z" fill="#114B5F"/>
<path id="Vector_36" fill-rule="evenodd" clip-rule="evenodd" d="M95.8793 48.4373C94.0609 47.5928 92.1722 47.6491 90.1797 48.4461C89.9748 48.5278 89.7417 48.428 89.66 48.223C89.5776 48.0181 89.6774 47.7857 89.8824 47.7033C92.0396 46.8407 94.1614 46.7583 96.2162 47.712C96.4164 47.8051 96.5035 48.0429 96.4104 48.2431C96.3173 48.4434 96.0795 48.5304 95.8793 48.4373Z" fill="#381B00"/>
<path id="Vector_37" d="M117.728 248.251C117.589 249.98 117.935 254.061 119.042 257.241L98.2258 251.778L85.3627 248.39L80.1072 247.007L67.2446 243.618L66.2072 243.341L65.2388 245.278L61.0897 243.341L77.8943 212.498L82.8042 214.712L82.5966 216.925L82.8042 217.063L93.9381 223.425L98.4335 226.053L109.567 232.415L125.611 241.613C124.089 244.793 117.866 246.038 117.728 248.251Z" fill="#DFDFDF"/>
<path id="Vector_38" d="M93.9384 223.564L80.1074 247.077L67.2449 243.688L82.8742 217.202L93.9384 223.564Z" fill="#B5CDFB"/>
<path id="Vector_39" d="M109.568 232.554L98.2266 251.779L85.3641 248.46L98.5032 226.192L109.568 232.554Z" fill="#B5CDFB"/>
<path id="Vector_40" d="M141.034 201.228L157.976 231.933C157.976 231.933 197.602 217.549 193.937 199.845C190.271 182.142 178.031 176.402 175.334 177.301C172.637 178.2 141.034 201.228 141.034 201.228Z" fill="#114B5F"/>
<path id="Vector_41" d="M132.526 243.55L127.271 246.039L125.68 243.965L125.404 243.619C125.404 243.619 121.6 245.002 115.791 247.077C112.61 248.183 108.737 249.566 104.588 250.949C101.407 251.987 98.0874 253.163 94.6295 254.269C94.0762 254.476 93.454 254.684 92.9008 254.891C85.7091 256.966 80.7985 258.073 79.7617 257.726C76.5804 256.689 68.8348 264.296 65.9997 263.674C63.164 263.051 57.2863 245.555 57.2863 245.555C57.2863 245.555 79.0699 242.789 86.9535 238.501C87.4377 238.225 87.8523 238.018 88.1985 237.741C89.236 236.98 91.9324 235.252 95.7359 232.761C98.364 231.102 101.476 229.097 104.934 226.884C107.7 225.154 110.604 223.218 113.717 221.282C113.993 221.144 112.679 218.654 112.679 218.654C113.993 217.824 115.653 216.787 117.036 215.957L131.628 241.821L132.526 243.55Z" fill="#114B5F"/>
<path id="Vector_42" d="M80.2469 39.1285C80.2469 39.1285 72.9165 10.4291 75.4059 6.41803C77.8954 2.47656 102.998 -2.36438 115.861 1.30115C119.803 2.47656 119.388 11.6742 119.388 11.6742C119.388 11.6742 122.292 6.00345 123.953 5.58821C125.612 5.17364 128.033 23.5689 123.053 38.2987L117.729 31.8671C117.729 31.8671 108.739 32.7666 101.754 32.49C93.455 32.2134 85.0182 31.5905 85.0182 31.3829C85.0872 31.3829 80.2469 39.1285 80.2469 39.1285Z" fill="#1E0E00"/>
<path id="Vector_43" opacity="0.28" d="M111.366 56.1414C115.033 56.1414 118.005 53.1691 118.005 49.5029C118.005 45.836 115.033 42.8636 111.366 42.8636C107.7 42.8636 104.727 45.836 104.727 49.5029C104.727 53.1691 107.7 56.1414 111.366 56.1414Z" fill="white"/>
<path id="Vector_44" opacity="0.28" d="M92.2786 56.1414C95.9448 56.1414 98.9172 53.1691 98.9172 49.5029C98.9172 45.836 95.9448 42.8636 92.2786 42.8636C88.6118 42.8636 85.6394 45.836 85.6394 49.5029C85.6394 53.1691 88.6118 56.1414 92.2786 56.1414Z" fill="white"/>
<path id="Vector_45" fill-rule="evenodd" clip-rule="evenodd" d="M111.365 43.7251C108.174 43.7251 105.587 46.3117 105.587 49.503C105.587 52.6937 108.174 55.2809 111.365 55.2809C114.556 55.2809 117.144 52.6937 117.144 49.503C117.144 46.3117 114.556 43.7251 111.365 43.7251ZM103.866 49.503C103.866 45.3606 107.223 42.0032 111.365 42.0032C115.507 42.0032 118.865 45.3606 118.865 49.503C118.865 53.6447 115.507 57.0028 111.365 57.0028C107.223 57.0028 103.866 53.6447 103.866 49.503Z" fill="#381B00"/>
<path id="Vector_46" fill-rule="evenodd" clip-rule="evenodd" d="M92.2792 43.7251C89.0878 43.7251 86.5013 46.3117 86.5013 49.503C86.5013 52.6937 89.0878 55.2809 92.2792 55.2809C95.4699 55.2809 98.0571 52.6937 98.0571 49.503C98.0571 46.3117 95.4699 43.7251 92.2792 43.7251ZM84.7794 49.503C84.7794 45.3606 88.1368 42.0032 92.2792 42.0032C96.4209 42.0032 99.779 45.3606 99.779 49.503C99.779 53.6447 96.4209 57.0028 92.2792 57.0028C88.1368 57.0028 84.7794 53.6447 84.7794 49.503Z" fill="#381B00"/>
<path id="Vector_47" d="M69.5273 249.358C69.5273 249.358 59.0156 243.341 55.835 242.788C52.5847 242.235 42.7642 240.921 42.7642 240.921C42.7642 240.921 35.918 240.921 33.9818 250.119C33.083 254.406 35.849 260.215 34.8806 269.551C34.8806 269.551 48.297 267.13 54.6589 267.545C60.9525 267.961 65.3092 268.514 66.4846 266.439C67.66 264.434 69.9425 251.778 69.5273 249.358Z" fill="#114B5F"/>
<path id="Vector_48" d="M41.1044 242.79C35.7745 247.158 36.7658 245.002 37.1622 250.95C37.3009 253.025 37.3699 255.1 37.3009 257.174C37.3009 258.212 37.2312 259.249 37.2312 260.287C37.2312 261.324 37.0933 262.361 36.9546 263.398C36.8167 264.436 36.609 265.473 36.2635 266.441C35.9868 267.479 35.5716 268.447 35.0184 269.484C34.3272 270.798 32.6676 271.213 31.3535 270.521C30.8003 270.245 30.4541 269.76 30.1774 269.277C29.6939 268.239 29.4863 267.202 29.2786 266.164C29.071 265.127 29.002 264.09 28.9331 263.053C28.8641 262.015 28.9331 260.978 29.002 259.941C29.071 258.903 29.1407 257.866 29.2097 256.829C29.4173 254.754 29.6939 252.749 30.0395 250.674C30.5632 248.055 30.8258 245.226 32.9442 243.344L33.5664 242.79L39.1126 240.802C39.8734 240.457 42.3615 240.042 42.7071 240.802C43.0527 241.425 41.5879 242.376 41.1044 242.79Z" fill="#114B5F"/>
<path id="Vector_49" d="M125.681 243.896C125.681 243.896 121.601 244.933 115.791 247.008L104.865 226.815C107.631 225.085 110.536 223.149 113.648 221.213L125.681 243.896Z" fill="#B5CDFB"/>
<path id="Vector_50" d="M104.589 250.881C101.407 251.918 98.0879 253.094 94.63 254.2L86.8851 238.433C87.3693 238.156 87.7839 237.949 88.1295 237.672C89.1669 236.911 91.864 235.183 95.6675 232.693L104.589 250.881Z" fill="#B5CDFB"/>
<path id="Vector_51" d="M54.4511 258.487C54.3821 258.557 54.4511 258.695 54.5201 258.764C54.5897 258.833 54.6587 258.833 54.7967 258.833H54.8663L54.7967 258.902L54.5201 259.11L54.0365 259.525C53.4137 260.078 52.7225 260.562 52.1003 261.115C50.8552 262.153 49.6102 263.328 48.4347 264.434C47.2593 265.611 46.0833 266.717 45.1155 267.961C44.6313 268.584 44.147 269.206 43.8014 269.76C43.5938 270.036 43.5248 270.313 43.4558 270.589C43.4558 270.658 43.4558 270.658 43.4558 270.727C43.4558 270.727 43.4558 270.727 43.4558 270.797V270.727C43.4558 270.727 43.4558 270.658 43.3862 270.658C43.2482 270.52 43.3862 270.658 43.5938 270.658C43.8704 270.727 44.078 270.727 44.3546 270.727C44.9079 270.658 45.4611 270.451 46.0833 270.036C47.2593 269.275 48.3658 268.169 49.3336 266.924C51.2698 264.296 52.9301 261.392 54.4511 258.487ZM55.9038 259.179C55.2809 260.701 54.5897 262.291 53.8289 263.812C53.0681 265.334 52.2382 266.855 51.2698 268.308C50.302 269.76 49.1956 271.143 47.5359 272.318C46.7061 272.871 45.7377 273.355 44.6312 273.494C44.078 273.563 43.4558 273.563 42.9026 273.424C42.764 273.424 42.626 273.355 42.4874 273.287C42.3494 273.218 42.2108 273.218 42.0032 273.079C41.7962 273.01 41.6576 272.871 41.5196 272.733C41.381 272.595 41.1733 272.388 41.0354 272.249C40.8967 272.041 40.7588 271.835 40.6891 271.558C40.6201 271.35 40.5511 271.074 40.5511 270.866C40.5511 270.658 40.5511 270.451 40.5511 270.313C40.5511 270.174 40.6201 269.967 40.6891 269.829C40.8967 269.275 41.1044 268.791 41.381 268.377C41.9342 267.547 42.4874 266.855 43.1096 266.233C44.3547 264.988 45.5997 263.812 46.9131 262.775C48.2271 261.668 49.5412 260.7 50.9242 259.663C51.6161 259.179 52.3072 258.695 52.9991 258.21L53.5523 257.865L53.8289 257.657L53.8979 257.588L54.0365 257.519C54.1055 257.45 54.2435 257.381 54.3821 257.381C54.9353 257.243 55.4885 257.45 55.7651 257.796C56.0417 258.073 56.1107 258.695 55.9038 259.179Z" fill="#B5CDFB"/>
<path id="Vector_52" d="M55.4877 257.241C57.7702 258.832 59.7065 260.907 61.0205 263.396C61.6427 264.641 62.1959 266.024 62.2649 267.614C62.2649 268.445 62.1959 269.344 61.7813 270.173C61.3661 271.072 60.5363 271.833 59.7065 272.179C59.2912 272.386 58.8077 272.525 58.2544 272.594C57.7006 272.663 57.0094 272.525 56.5252 272.248C55.9719 271.972 55.6264 271.557 55.2808 271.211C55.0042 270.865 54.7276 270.45 54.5889 270.104C53.8971 268.652 53.7591 267.2 53.6205 265.817C53.5515 264.434 53.5515 263.12 53.6205 261.737C53.6901 261.045 53.6901 260.423 53.7591 259.731C53.8281 259.385 53.8281 259.04 53.8971 258.694C53.8971 258.486 53.9667 258.348 53.9667 258.141C53.9667 258.071 54.0357 257.933 54.0357 257.864C54.0357 257.795 54.1047 257.726 54.1047 257.657C54.1047 257.657 54.1737 257.518 54.2433 257.449C54.2433 257.449 54.3813 257.241 54.5889 257.172C54.6579 257.172 54.6579 257.103 54.7276 257.103C54.7965 257.103 54.8655 257.034 54.9345 257.034C55.1421 257.103 55.3497 257.103 55.4877 257.241ZM54.5889 258.624C54.7276 258.694 54.8655 258.763 55.0731 258.763C55.1421 258.763 55.2111 258.763 55.2808 258.694C55.2808 258.694 55.3498 258.694 55.4187 258.624C55.5574 258.555 55.6953 258.348 55.6953 258.417C55.7643 258.348 55.7643 258.279 55.7643 258.279V258.486C55.7643 258.624 55.7643 258.763 55.7643 258.901C55.7643 259.178 55.7643 259.524 55.7643 259.8C55.7643 260.423 55.7643 261.045 55.834 261.668C55.903 262.912 56.1106 264.157 56.3872 265.402C56.6638 266.578 56.9404 267.822 57.424 268.652C57.6316 269.067 57.9082 269.413 58.0468 269.413C58.1158 269.413 58.1158 269.413 58.1848 269.413C58.2544 269.413 58.3924 269.344 58.6 269.275C58.9456 269.136 59.1532 268.928 59.2912 268.652C59.4988 268.375 59.5678 267.961 59.6375 267.476C59.7065 266.508 59.4298 265.333 59.0843 264.226C58.669 263.12 58.1158 262.013 57.355 261.045C56.4562 260.146 55.6953 259.178 54.5889 258.624Z" fill="#B5CDFB"/>
<path id="Vector_53" d="M134.394 253.301C134.187 252.887 134.256 252.195 134.602 251.849C134.948 251.504 135.501 251.296 135.985 251.434C136.123 251.504 136.262 251.504 136.331 251.572L136.469 251.641L136.538 251.71L136.815 251.918L137.368 252.264C138.059 252.748 138.751 253.232 139.442 253.716C140.826 254.754 142.139 255.722 143.453 256.828C144.767 257.934 146.013 259.041 147.257 260.286C147.88 260.908 148.433 261.6 148.986 262.43C149.263 262.844 149.47 263.329 149.677 263.882C149.746 264.02 149.746 264.228 149.816 264.366C149.816 264.574 149.816 264.781 149.816 264.919C149.816 265.127 149.746 265.334 149.677 265.611C149.608 265.818 149.47 266.095 149.332 266.302C149.193 266.51 149.055 266.648 148.848 266.786C148.71 266.924 148.502 266.994 148.363 267.132C148.156 267.271 148.018 267.271 147.88 267.34C147.741 267.409 147.534 267.478 147.465 267.478C146.911 267.616 146.358 267.616 145.736 267.547C144.63 267.409 143.661 266.924 142.831 266.371C141.241 265.265 140.134 263.813 139.097 262.361C138.129 260.908 137.299 259.387 136.538 257.865C135.708 256.413 135.017 254.892 134.394 253.301ZM135.846 252.61C137.368 255.584 138.959 258.488 140.964 260.978C141.932 262.222 143.039 263.329 144.214 264.089C144.767 264.435 145.39 264.712 145.943 264.781C146.22 264.781 146.496 264.781 146.704 264.712C146.911 264.643 147.049 264.574 146.911 264.712C146.842 264.712 146.842 264.781 146.842 264.781V264.85C146.842 264.85 146.842 264.85 146.842 264.781C146.842 264.712 146.842 264.712 146.842 264.643C146.773 264.435 146.635 264.158 146.496 263.813C146.151 263.191 145.666 262.568 145.183 262.015C144.145 260.77 143.039 259.664 141.863 258.488C140.687 257.381 139.442 256.206 138.198 255.168C137.576 254.615 136.953 254.131 136.262 253.578L135.777 253.163L135.501 252.956L135.432 252.887H135.501C135.639 252.887 135.708 252.887 135.777 252.817C135.846 252.887 135.915 252.679 135.846 252.61Z" fill="#B5CDFB"/>
<path id="Vector_54" d="M135.708 252.747C134.671 253.301 133.841 254.269 133.08 255.237C132.389 256.205 131.766 257.312 131.352 258.418C130.937 259.524 130.729 260.7 130.799 261.668C130.799 262.153 130.937 262.567 131.144 262.844C131.352 263.12 131.559 263.328 131.835 263.467C132.043 263.536 132.182 263.605 132.251 263.605C132.32 263.605 132.32 263.605 132.389 263.605C132.458 263.605 132.735 263.259 133.011 262.844C133.496 261.945 133.772 260.77 134.049 259.593C134.325 258.418 134.463 257.104 134.602 255.86C134.671 255.237 134.671 254.615 134.671 253.992C134.671 253.647 134.671 253.37 134.671 253.093C134.671 252.955 134.671 252.816 134.671 252.678V252.471C134.671 252.471 134.671 252.402 134.671 252.471C134.671 252.471 134.671 252.54 134.74 252.609C134.74 252.609 134.879 252.816 135.017 252.816C135.086 252.816 135.086 252.816 135.155 252.886C135.224 252.886 135.293 252.955 135.362 252.955C135.362 252.886 135.57 252.886 135.708 252.747ZM134.809 251.364C134.948 251.295 135.155 251.226 135.293 251.226C135.362 251.226 135.432 251.226 135.501 251.295C135.57 251.295 135.57 251.295 135.639 251.364C135.777 251.433 135.985 251.641 135.985 251.641C136.054 251.71 136.123 251.848 136.123 251.848C136.192 251.986 136.192 251.986 136.192 252.056C136.192 252.194 136.262 252.263 136.262 252.333C136.331 252.54 136.331 252.678 136.331 252.886C136.4 253.232 136.4 253.577 136.469 253.923C136.538 254.615 136.607 255.237 136.607 255.929C136.676 257.243 136.745 258.626 136.607 260.009C136.469 261.392 136.331 262.775 135.639 264.296C135.501 264.642 135.224 265.057 134.948 265.403C134.671 265.748 134.256 266.164 133.703 266.44C133.149 266.717 132.527 266.855 131.974 266.786C131.421 266.717 130.937 266.578 130.522 266.371C129.691 266.025 128.862 265.264 128.447 264.365C127.963 263.467 127.894 262.567 127.963 261.807C128.032 260.216 128.585 258.833 129.208 257.588C130.591 255.03 132.458 253.024 134.809 251.364Z" fill="#B5CDFB"/>
<path id="Vector_55" d="M148.917 208.419H55.0047C51.6848 208.419 48.9877 205.722 48.9877 202.402V143.137C48.9877 139.817 51.6848 137.12 55.0047 137.12H148.847C152.167 137.12 154.864 139.817 154.864 143.137V202.402C154.933 205.722 152.236 208.419 148.917 208.419Z" fill="#1B2227"/>
<path id="Vector_56" fill-rule="evenodd" clip-rule="evenodd" d="M60.2543 144.189C57.7883 144.189 55.7483 146.16 55.7483 148.695V196.276C55.7483 198.742 57.72 200.782 60.2543 200.782H143.197C145.659 200.782 147.703 198.738 147.703 196.276V149.153C147.703 146.386 145.506 144.189 142.738 144.189H60.2543ZM54.9847 148.695C54.9847 145.731 57.3744 143.426 60.2543 143.426H142.738C145.928 143.426 148.466 145.964 148.466 149.153V196.276C148.466 199.16 146.081 201.546 143.197 201.546H60.2543C57.29 201.546 54.9847 199.156 54.9847 196.276V148.695Z" fill="#8D8686"/>
<path id="Vector_57" fill-rule="evenodd" clip-rule="evenodd" d="M53.839 137.316C51.0709 137.316 48.8748 139.513 48.8748 142.28V202.692C48.8748 205.46 51.0709 207.657 53.839 207.657H149.612C152.38 207.657 154.576 205.46 154.576 202.692V142.28C154.576 139.513 152.38 137.316 149.612 137.316H53.839ZM48.1107 142.28C48.1107 139.091 50.6497 136.553 53.839 136.553H149.612C152.801 136.553 155.34 139.091 155.34 142.28V202.692C155.34 205.882 152.801 208.421 149.612 208.421H53.839C50.6497 208.421 48.1107 205.882 48.1107 202.692V142.28Z" fill="#8D8686"/>
<path id="Vector_58" fill-rule="evenodd" clip-rule="evenodd" d="M56.1301 139.608C53.3621 139.608 51.166 141.805 51.166 144.572V200.402C51.166 203.169 53.3621 205.366 56.1301 205.366H147.32C150.088 205.366 152.285 203.169 152.285 200.402V144.572C152.285 141.805 150.088 139.608 147.32 139.608H56.1301ZM50.4018 144.572C50.4018 141.383 52.9408 138.844 56.1301 138.844H147.32C150.51 138.844 153.049 141.383 153.049 144.572V200.402C153.049 203.591 150.51 206.129 147.32 206.129H56.1301C52.9408 206.129 50.4018 203.591 50.4018 200.402V144.572Z" fill="#8D8686"/>
<path id="Vector_59" fill-rule="evenodd" clip-rule="evenodd" d="M58.422 141.9C55.6539 141.9 53.4578 144.097 53.4578 146.864V198.111C53.4578 200.879 55.6539 203.075 58.422 203.075H145.03C147.798 203.075 149.994 200.879 149.994 198.111V146.864C149.994 144.097 147.798 141.9 145.03 141.9H58.422ZM52.6936 146.864C52.6936 143.675 55.2326 141.136 58.422 141.136H145.03C148.219 141.136 150.758 143.675 150.758 146.864V198.111C150.758 201.301 148.219 203.839 145.03 203.839H58.422C55.2326 203.839 52.6936 201.301 52.6936 198.111V146.864Z" fill="#8D8686"/>
<path id="Vector_60" d="M101.615 184.698C96.7051 184.698 92.7637 180.757 92.7637 175.847C92.7637 170.937 96.7051 166.995 101.615 166.995C106.525 166.995 110.467 170.937 110.467 175.847C110.536 180.687 106.525 184.698 101.615 184.698ZM101.615 169C97.8805 169 94.8379 172.043 94.8379 175.777C94.8379 179.512 97.8805 182.554 101.615 182.554C105.35 182.554 108.392 179.512 108.392 175.777C108.461 172.043 105.419 169 101.615 169Z" fill="#B5CDFB"/>
<path id="Vector_61" d="M135.777 175.848L135.846 175.226L135.432 175.157L135.017 175.088L134.948 175.779L134.463 175.71L134.532 175.018L134.118 174.949L133.703 174.88L133.634 175.572L133.149 175.503L133.218 174.811L132.804 174.742L132.388 174.673L132.319 175.365L131.835 175.295L131.905 174.604L131.49 174.534L131.075 174.465L131.005 175.157L130.522 175.088L130.591 174.396L130.176 174.327L129.761 174.258L129.691 174.949L129.208 174.88L129.277 174.189L128.862 174.12L128.447 174.051L128.378 174.742L127.894 174.673L127.963 173.981L127.548 173.912L127.133 173.843L127.064 174.534L126.58 174.465L126.649 173.774L126.234 173.704L125.819 173.635L125.75 174.327L125.266 174.258L125.335 173.566L124.92 173.497L124.505 173.428L124.436 174.12L123.814 174.051L123.745 174.465L123.675 174.88L124.367 174.949L124.298 175.434L123.606 175.365L123.537 175.779L123.468 176.194L124.159 176.263L124.09 176.748L123.398 176.678L123.329 177.093L123.26 177.508L123.952 177.577L123.883 178.061L123.192 177.992L123.122 178.407L123.053 178.822L123.745 178.892L123.675 179.375L122.984 179.306L122.915 179.721L122.845 180.136L123.537 180.205L123.468 180.689L122.776 180.62L122.707 181.035L122.638 181.45L123.329 181.519L123.26 182.003L122.569 181.934L122.5 182.349L122.431 182.764L123.122 182.833L123.053 183.317L122.361 183.248L122.292 183.663L122.223 184.078L122.915 184.147L122.845 184.631L122.154 184.562L122.084 184.977L122.015 185.392L122.707 185.461L122.638 185.945L121.946 185.876L121.877 186.291L121.808 186.705L122.5 186.775L122.431 187.466L122.845 187.535L123.26 187.605L123.329 186.913L123.814 186.982L123.745 187.674L124.159 187.743L124.575 187.812L124.644 187.121L125.128 187.19L125.058 187.882L125.473 187.951L125.888 188.02L125.958 187.328L126.442 187.397L126.372 188.089L126.787 188.158L127.202 188.227L127.272 187.535L127.755 187.605L127.686 188.296L128.101 188.365L128.516 188.435L128.585 187.743L129.069 187.812L129 188.504L129.415 188.573L129.83 188.642L129.899 187.951L130.383 188.02L130.314 188.711L130.729 188.78L131.144 188.849L131.213 188.158L131.697 188.227L131.628 188.919L132.043 188.988L132.458 189.057L132.527 188.365L133.011 188.435L132.942 189.126L133.357 189.196L133.772 189.265L133.841 188.573L134.463 188.642L134.532 188.227L134.602 187.812L133.91 187.743L133.979 187.259L134.671 187.328L134.74 186.913L134.809 186.499L134.118 186.429L134.187 185.945L134.879 186.014L134.948 185.599L135.017 185.184L134.325 185.115L134.394 184.631L135.086 184.7L135.155 184.285L135.224 183.87L134.532 183.801L134.602 183.317L135.293 183.386L135.362 182.972L135.432 182.556L134.74 182.487L134.809 182.003L135.501 182.072L135.57 181.658L135.639 181.242L134.948 181.173L135.017 180.689L135.708 180.758L135.777 180.344L135.846 179.928L135.155 179.859L135.224 179.375L135.915 179.445L135.985 179.029L136.054 178.615L135.362 178.545L135.432 178.061L136.123 178.131L136.192 177.715L136.262 177.301L135.57 177.231L135.639 176.748L136.331 176.817L136.4 176.401L136.469 175.987L135.777 175.848ZM136.192 176.609L135.501 176.54L135.432 177.37L136.123 177.439V177.715V177.992L135.432 177.923L135.362 178.753L136.054 178.822V179.098V179.375L135.362 179.306L135.293 180.136L135.985 180.205V180.482V180.758L135.293 180.689L135.224 181.519L135.915 181.588V181.865V182.142L135.224 182.072L135.155 182.902L135.846 182.972V183.248V183.525L135.155 183.455L135.086 184.285L135.777 184.355V184.631V184.908L135.086 184.838L135.017 185.669L135.708 185.738V186.014V186.291L135.017 186.222L134.948 187.052L135.639 187.121V187.397V187.674L134.948 187.605L134.879 188.435L135.57 188.504V188.78V189.057L134.948 188.988L134.879 189.679H134.602H134.325L134.394 188.988L133.565 188.919L133.496 189.61H133.218H132.942L133.011 188.919L132.182 188.849L132.112 189.541H131.835H131.559L131.628 188.849L130.799 188.78L130.729 189.472H130.452H130.176L130.245 188.78L129.415 188.711L129.346 189.403H129.069H128.793L128.862 188.711L128.032 188.642L127.963 189.334H127.686H127.41L127.479 188.642L126.649 188.573L126.58 189.265H126.303H126.027L126.096 188.573L125.266 188.504L125.197 189.196H124.92H124.644L124.713 188.504L123.883 188.435L123.814 189.126H123.537H123.26L123.329 188.504L122.638 188.435V188.158V187.882L123.329 187.951L123.398 187.121L122.707 187.052V186.775V186.499L123.398 186.568L123.468 185.738L122.776 185.669V185.392V185.115L123.468 185.184L123.537 184.355L122.845 184.285V184.008V183.732L123.537 183.801L123.606 182.972L122.915 182.902V182.625V182.349L123.606 182.418L123.675 181.588L122.984 181.519V181.242V180.966L123.675 181.035L123.745 180.205L123.053 180.136V179.859V179.583L123.745 179.652L123.814 178.822L123.122 178.753V178.476V178.2L123.814 178.269L123.883 177.439L123.192 177.37V177.093V176.817L123.883 176.886L123.952 176.056L123.26 175.987V175.71V175.434L123.952 175.503L124.021 174.811H124.298H124.575L124.505 175.503L125.335 175.572L125.404 174.88H125.681H125.958L125.888 175.572L126.718 175.641L126.787 174.949H127.064H127.341L127.272 175.641L128.101 175.71L128.17 175.018H128.447H128.724L128.655 175.71L129.484 175.779L129.553 175.088H129.83H130.107L130.038 175.779L130.867 175.848L130.936 175.157H131.213H131.49L131.421 175.848L132.251 175.918L132.319 175.226H132.596H132.873L132.804 175.918L133.634 175.987L133.703 175.295H133.979H134.256L134.187 175.987L135.017 176.056L135.086 175.365H135.362H135.57L135.501 176.056L136.192 176.125V176.401V176.609Z" fill="#114B5F"/>
<path id="Vector_62" d="M124.645 175.41L123.391 186.404L133.698 187.579L134.952 176.586L124.645 175.41Z" fill="#B5CDFB"/>
<path id="Vector_63" d="M118.074 144.035V145.418C118.074 146.04 117.59 146.593 116.899 146.593H116.622C116.069 146.593 115.654 147.009 115.654 147.562C115.654 148.115 115.169 148.599 114.616 148.599H89.2367C88.6834 148.599 88.1992 148.115 88.1992 147.562C88.1992 147.009 87.784 146.593 87.2308 146.593H86.9541C86.332 146.593 85.7787 146.109 85.7787 145.418V144.035H118.074Z" fill="#8D8686"/>
<path id="Vector_64" d="M118.074 200.881V199.498C118.074 198.876 117.59 198.323 116.899 198.323H116.622C116.069 198.323 115.654 197.908 115.654 197.354C115.654 196.801 115.169 196.317 114.616 196.317H89.2367C88.6834 196.317 88.1992 196.801 88.1992 197.354C88.1992 197.908 87.784 198.323 87.2308 198.323H86.9541C86.332 198.323 85.7787 198.806 85.7787 199.498V200.881H118.074Z" fill="#8D8686"/>
<path id="Vector_65" d="M148.085 162.087H146.702C146.079 162.087 145.526 162.433 145.526 162.848V162.986C145.526 163.331 145.111 163.608 144.558 163.608C144.005 163.608 143.52 163.885 143.52 164.3V181.104C143.52 181.45 144.005 181.796 144.558 181.796C145.111 181.796 145.526 182.073 145.526 182.418V182.556C145.526 182.972 146.01 183.317 146.702 183.317H148.085V162.087Z" fill="#8D8686"/>
<path id="Vector_66" d="M55.8344 162.087H57.2174C57.8396 162.087 58.3928 162.433 58.3928 162.848V162.986C58.3928 163.331 58.808 163.608 59.3612 163.608C59.9145 163.608 60.3987 163.885 60.3987 164.3V181.104C60.3987 181.45 59.9145 181.796 59.3612 181.796C58.808 181.796 58.3928 182.073 58.3928 182.418V182.556C58.3928 182.972 57.9086 183.317 57.2174 183.317H55.8344V162.087Z" fill="#8D8686"/>
<path id="Vector_67" d="M80.4538 160.356L80.2469 159.873L80.0393 159.319L79.2784 159.596L79.0708 158.973L79.8316 158.697L79.624 158.213L79.4171 157.66L78.6562 157.936L78.4486 157.314L79.2094 157.037L79.0018 156.553L78.8638 155.999L78.103 156.276L77.8954 155.654L78.6562 155.377L78.4486 154.893L78.241 154.34L77.4802 154.616L77.2732 153.994L78.034 153.718L77.8264 153.233L77.6188 152.68L76.858 152.957L76.6503 152.335L77.4112 152.058L77.2036 151.574L76.9966 151.021L76.2358 151.297L76.0281 150.675L76.789 150.398L76.5814 149.914L76.3737 149.43L75.6136 149.707L75.337 148.946L74.8527 149.153L74.3685 149.361L74.6451 150.122L74.0919 150.329L73.8153 149.569L73.3311 149.776L72.8468 149.983L73.1234 150.744L72.5702 150.952L72.2936 150.191L71.8101 150.398L71.2569 150.467L71.5335 151.228L70.9802 151.436L70.703 150.675L70.2194 150.883L69.7352 151.09L70.0118 151.85L69.4586 152.058L69.182 151.297L68.6978 151.505L68.2135 151.712L68.4901 152.473L67.9369 152.68L67.6603 151.919L67.1761 152.127L66.6925 152.335L66.9691 153.095L66.4159 153.233L66.1393 152.473L65.6551 152.68L65.1709 152.888L65.4475 153.649L64.8943 153.856L64.6176 153.095L64.1334 153.302L63.6492 153.51L63.9265 154.271L63.3726 154.478L63.096 153.718L62.6124 153.925L62.1282 154.133L62.4048 154.893L61.8516 155.101L61.575 154.34L61.0908 154.547L60.6065 154.755L60.8831 155.516L60.3299 155.723L60.0533 154.963L59.5691 155.17L59.0855 155.377L59.3621 156.138L58.8089 156.346L58.5323 155.585L58.0481 155.793L57.5639 155.999L57.8405 156.76L57.2873 156.968L57.0106 156.207L56.5264 156.415L56.0422 156.622L56.3188 157.383L55.5586 157.66L55.7656 158.143L55.9732 158.697L56.734 158.42L56.9417 159.043L56.1808 159.319L56.3884 159.803L56.5954 160.356L57.3562 160.08L57.5639 160.702L56.803 160.979L57.0106 161.463L57.2183 162.016L57.9791 161.74L58.1861 162.362L57.4259 162.639L57.6328 163.123L57.8405 163.676L58.6013 163.4L58.8089 164.022L58.0481 164.298L58.2557 164.783L58.4627 165.336L59.2235 165.059L59.4311 165.681L58.6703 165.958L58.8779 166.442L59.0855 166.926L59.8457 166.65L60.0533 167.272L59.2925 167.549L59.5001 168.033L59.7077 168.517L60.4686 168.24L60.7452 169.001L61.2294 168.794L61.713 168.586L61.4363 167.825L61.9896 167.618L62.2662 168.378L62.7504 168.171L63.2346 167.963L62.958 167.203L63.5112 166.995L63.7878 167.756L64.2721 167.549L64.7563 167.341L64.341 166.373L64.8943 166.166L65.1709 166.926L65.6551 166.719L66.1393 166.511L65.8627 165.75L66.4159 165.543L66.6925 166.304L67.1761 166.097L67.6603 165.889L67.3837 165.128L67.9369 164.921L68.2135 165.681L68.6978 165.474L69.182 165.267L68.9054 164.506L69.4586 164.298L69.7352 165.059L70.2194 164.852L70.703 164.644L70.4264 163.883L70.9802 163.676L71.2569 164.437L71.7404 164.229L72.2246 164.022L71.948 163.261L72.5012 163.053L72.7779 163.814L73.2621 163.606L73.7463 163.4L73.4697 162.639L74.0229 162.431L74.2995 163.192L74.7837 162.984L75.2673 162.777L74.9907 162.016L75.5439 161.809L75.8205 162.57L76.3047 162.362L76.789 162.154L76.5124 161.394L77.0656 161.187L77.3422 161.947L77.8264 161.74L78.3106 161.532L78.034 160.771L78.5872 160.564L78.8638 161.325L79.3474 161.117L79.8316 160.91L79.555 160.149L80.4538 160.356ZM79.6937 161.325L79.4171 161.463L79.1405 161.601L78.8638 160.84L77.8954 161.187L78.172 161.947L77.8954 162.085L77.6188 162.223L77.3422 161.463L76.3737 161.809L76.6503 162.57L76.3737 162.708L76.0971 162.846L75.8205 162.085L74.8527 162.431L75.1293 163.192L74.8527 163.33L74.5761 163.469L74.2995 162.708L73.3311 163.053L73.6077 163.814L73.3311 163.953L73.0545 164.091L72.7779 163.33L71.8101 163.676L72.0867 164.437L71.8101 164.575L71.5335 164.714L71.2569 163.953L70.2884 164.298L70.565 165.059L70.2884 165.197L70.0118 165.336L69.7352 164.575L68.7667 164.921L69.0433 165.681L68.7667 165.82L68.4901 165.958L68.2135 165.197L67.2457 165.543L67.5223 166.304L67.2457 166.442L66.9691 166.58L66.6925 165.82L65.7241 166.166L66.0007 166.926L65.7241 167.064L65.4475 167.203L65.1709 166.442L64.2031 166.788L64.4797 167.549L64.2031 167.687L63.9265 167.825L63.6492 167.064L62.6814 167.41L62.958 168.171L62.6814 168.309L62.4048 168.447L62.1282 167.687L61.1597 168.033L61.4363 168.794L61.1597 168.932L60.8831 169.07L60.6065 168.309L59.8457 168.586L59.7077 168.309L59.5691 168.033L60.3299 167.756L59.9153 166.719L59.1545 166.995L59.0159 166.65L58.8089 165.681L59.5691 165.405L59.1545 164.367L58.3937 164.644L58.2557 164.298L58.1171 164.022L58.8779 163.745L58.4627 162.708L57.7025 162.984L57.5639 162.639L57.4259 162.362L58.1861 162.085L57.7715 161.048L57.0106 161.325L56.8727 160.979L56.734 160.702L57.4949 160.426L57.0796 159.388L56.3188 159.665L56.1808 159.319L56.0422 159.043L56.803 158.766L56.3884 157.729L55.6276 158.005L55.489 157.66L55.351 157.383L56.1118 157.106L55.8352 156.346L56.1118 156.207L56.3884 156.069L56.6651 156.829L57.6328 156.484L57.3562 155.723L57.6328 155.585L57.9095 155.446L58.1861 156.207L59.1545 155.862L58.8779 155.101L59.1545 154.963L59.4311 154.824L59.7077 155.585L60.6762 155.239L60.3996 154.478L60.6762 154.34L60.9528 154.202L61.2294 154.963L62.1972 154.616L61.9206 153.856L62.1972 153.718L62.4738 153.579L62.7504 154.34L63.7188 153.994L63.4422 153.233L63.7188 153.095L63.9954 152.957L64.2721 153.718L65.2398 153.372L64.9632 152.611L65.2398 152.473L65.5165 152.335L65.7931 153.095L66.7615 152.749L66.4849 151.989L66.7615 151.85L67.0381 151.712L67.3147 152.473L68.2832 152.127L68.0066 151.366L68.2832 151.228L68.5598 151.09L68.8364 151.85L69.8042 151.505L69.5276 150.744L69.8042 150.606L70.0808 150.467L70.3574 151.228L71.3258 150.883L71.0492 150.122L71.3258 149.983L71.6024 149.845L71.8791 150.606L72.8468 150.26L72.5702 149.499L72.8468 149.361L73.1234 149.222L73.4001 149.983L74.3685 149.638L74.0919 148.877L74.3685 148.739L74.6451 148.6L74.9217 149.361L75.6825 149.084L75.8205 149.361L75.9592 149.638L75.1983 149.914L75.6136 150.952L76.3737 150.675L76.5124 151.021L76.6503 151.297L75.8902 151.574L76.3047 152.611L77.0656 152.335L77.2036 152.68L77.3422 152.957L76.5814 153.233L76.9966 154.271L77.7568 153.994L77.8954 154.34L78.034 154.616L77.2732 154.893L77.6878 155.93L78.4486 155.654L78.5872 155.999L78.7252 156.276L77.9644 156.553L78.3796 157.59L79.1405 157.314L79.2784 157.66L79.4171 157.936L78.6562 158.213L79.0708 159.25L79.8316 158.973L79.9703 159.319L80.1082 159.596L79.3474 159.873L79.6937 161.325Z" fill="#B5CDFB"/>
<path id="Vector_68" d="M75.084 150.92L57.3484 157.592L60.8057 166.784L78.5413 160.112L75.084 150.92Z" fill="#B5CDFB"/>
</g>
</g>
</svg>
