<svg width="381" height="215" viewBox="0 0 381 215" fill="none" xmlns="http://www.w3.org/2000/svg">
<mask id="mask0_169_196" style="mask-type:alpha" maskUnits="userSpaceOnUse" x="147" y="29" width="234" height="186">
<path d="M380.417 214.111L147.345 205.03V141.465L380.417 29.4689V214.111Z" fill="black"/>
</mask>
<g mask="url(#mask0_169_196)">
<g filter="url(#filter0_f_169_196)">
<path d="M380.417 165.68L175.591 200.261C160.816 202.755 147.344 191.368 147.344 176.384V166.642C147.344 152.898 158.769 141.91 172.503 142.445L380.417 150.545V165.68Z" fill="url(#paint0_linear_169_196)" fill-opacity="0.5"/>
</g>
</g>
<path d="M147.345 36.1664L0.000549316 17.4134L116.537 0L257.184 25.4504L147.345 36.1664Z" fill="url(#paint1_linear_169_196)"/>
<path d="M147.345 204.943V36.1664L257.183 25.4504V179.492L147.345 204.943Z" fill="url(#paint2_linear_169_196)"/>
<path d="M147.345 36.1664L0 17.4135V178.153L147.345 204.943V36.1664Z" fill="url(#paint3_linear_169_196)"/>
<defs>
<filter id="filter0_f_169_196" x="86.8062" y="81.8879" width="354.149" height="179.255" filterUnits="userSpaceOnUse" color-interpolation-filters="sRGB">
<feFlood flood-opacity="0" result="BackgroundImageFix"/>
<feBlend mode="normal" in="SourceGraphic" in2="BackgroundImageFix" result="shape"/>
<feGaussianBlur stdDeviation="30.2691" result="effect1_foregroundBlur_169_196"/>
</filter>
<linearGradient id="paint0_linear_169_196" x1="147.344" y1="214.111" x2="380.417" y2="214.111" gradientUnits="userSpaceOnUse">
<stop/>
<stop offset="1" stop-opacity="0"/>
</linearGradient>
<linearGradient id="paint1_linear_169_196" x1="128.592" y1="0" x2="128.592" y2="36.1664" gradientUnits="userSpaceOnUse">
<stop stop-color="#114B5F"/>
<stop offset="1" stop-color="#77F2FC"/>
</linearGradient>
<linearGradient id="paint2_linear_169_196" x1="206.952" y1="25.4504" x2="271.918" y2="371.04" gradientUnits="userSpaceOnUse">
<stop stop-color="#114B5F"/>
<stop offset="1" stop-color="#77F2FC"/>
</linearGradient>
<linearGradient id="paint3_linear_169_196" x1="261.202" y1="121.894" x2="5.29938e-06" y2="136.629" gradientUnits="userSpaceOnUse">
<stop stop-color="#114B5F"/>
<stop offset="1" stop-color="#77F2FC"/>
</linearGradient>
</defs>
</svg>
