<svg width="181" height="110" viewBox="0 0 181 110" fill="none" xmlns="http://www.w3.org/2000/svg">
<g filter="url(#filter0_d_5_2125)">
<path d="M168.339 101.3H12.0389C7.64094 101.3 4.07593 97.735 4.07593 93.337V8.80603C4.07593 4.40803 7.64094 0.843018 12.0389 0.843018H168.339C172.737 0.843018 176.302 4.40803 176.302 8.80603V93.337C176.302 97.735 172.736 101.3 168.339 101.3Z" fill="#114B5F"/>
<path d="M157.089 32.0811H99.7589C98.8159 32.0811 98.0519 31.317 98.0519 30.374C98.0519 29.431 98.8159 28.667 99.7589 28.667H157.089C158.032 28.667 158.796 29.431 158.796 30.374C158.795 31.317 158.031 32.0811 157.089 32.0811Z" fill="#D2DCFF"/>
<path d="M130.047 41.39H99.7589C98.8159 41.39 98.0519 40.626 98.0519 39.683C98.0519 38.74 98.8159 37.976 99.7589 37.976H130.047C130.99 37.976 131.754 38.74 131.754 39.683C131.754 40.626 130.989 41.39 130.047 41.39Z" fill="#D2DCFF"/>
<path d="M119.266 75.783H99.7589C98.8159 75.783 98.0519 75.019 98.0519 74.076C98.0519 73.133 98.8159 72.369 99.7589 72.369H119.266C120.209 72.369 120.973 73.133 120.973 74.076C120.972 75.019 120.208 75.783 119.266 75.783Z" fill="#89AEFF"/>
<path d="M39.9829 59.519V73.422C39.9829 74.365 39.2189 75.129 38.2759 75.129H31.379C30.436 75.129 29.6719 74.365 29.6719 73.422V59.519C29.6719 58.576 30.436 57.812 31.379 57.812H38.2759C39.2189 57.812 39.9829 58.576 39.9829 59.519Z" fill="#D2DCFF"/>
<path d="M58.726 45.458V73.421C58.726 74.364 57.9619 75.1281 57.0189 75.1281H50.1219C49.1789 75.1281 48.4149 74.364 48.4149 73.421V45.458C48.4149 44.515 49.1789 43.751 50.1219 43.751H57.0189C57.9609 43.751 58.726 44.516 58.726 45.458Z" fill="#D2DCFF"/>
<path d="M77.468 33.788V73.422C77.468 74.365 76.7039 75.129 75.7609 75.129H68.864C67.921 75.129 67.1569 74.365 67.1569 73.422V33.788C67.1569 32.845 67.921 32.0811 68.864 32.0811H75.7609C76.7039 32.0811 77.468 32.845 77.468 33.788Z" fill="#D2DCFF"/>
</g>
<defs>
<filter id="filter0_d_5_2125" x="0.0759277" y="0.843018" width="180.226" height="108.457" filterUnits="userSpaceOnUse" color-interpolation-filters="sRGB">
<feFlood flood-opacity="0" result="BackgroundImageFix"/>
<feColorMatrix in="SourceAlpha" type="matrix" values="0 0 0 0 0 0 0 0 0 0 0 0 0 0 0 0 0 0 127 0" result="hardAlpha"/>
<feOffset dy="4"/>
<feGaussianBlur stdDeviation="2"/>
<feComposite in2="hardAlpha" operator="out"/>
<feColorMatrix type="matrix" values="0 0 0 0 0 0 0 0 0 0 0 0 0 0 0 0 0 0 0.25 0"/>
<feBlend mode="normal" in2="BackgroundImageFix" result="effect1_dropShadow_5_2125"/>
<feBlend mode="normal" in="SourceGraphic" in2="effect1_dropShadow_5_2125" result="shape"/>
</filter>
</defs>
</svg>
