<svg width="174" height="166" viewBox="0 0 174 166" fill="none" xmlns="http://www.w3.org/2000/svg">
<path d="M165.237 165.3H8.93689C4.53889 165.3 0.973877 161.735 0.973877 157.337V8.526C0.973877 4.128 4.53889 0.562988 8.93689 0.562988H165.237C169.635 0.562988 173.2 4.128 173.2 8.526V157.337C173.2 161.735 169.635 165.3 165.237 165.3Z" fill="#114B5F"/>
<path d="M98.9669 24.408H24.8059C23.4859 24.408 22.4159 23.3379 22.4159 22.0179C22.4159 20.6979 23.4859 19.6281 24.8059 19.6281H98.9669C100.287 19.6281 101.357 20.6979 101.357 22.0179C101.357 23.3379 100.287 24.408 98.9669 24.408Z" fill="#E1E9FF"/>
<path d="M75.1259 36.332H24.8059C23.4859 36.332 22.4159 35.262 22.4159 33.942C22.4159 32.622 23.4859 31.552 24.8059 31.552H75.1259C76.4459 31.552 77.5159 32.622 77.5159 33.942C77.5159 35.262 76.4459 36.332 75.1259 36.332Z" fill="#E1E9FF"/>
<path d="M37.3759 55.869H24.1229C23.1799 55.869 22.4159 55.105 22.4159 54.162C22.4159 53.219 23.1799 52.455 24.1229 52.455H37.3759C38.3189 52.455 39.0829 53.219 39.0829 54.162C39.0829 55.104 38.3189 55.869 37.3759 55.869Z" fill="#89AEFF"/>
<path d="M43.1439 110.738V153.337C43.1439 154.28 42.3799 155.044 41.4369 155.044H34.5399C33.5969 155.044 32.8329 154.28 32.8329 153.337V110.738C32.8329 109.795 33.5969 109.031 34.5399 109.031H41.4369C42.3799 109.031 43.1439 109.795 43.1439 110.738Z" fill="#89AEFF"/>
<path d="M61.8868 93.623V153.337C61.8868 154.28 61.1229 155.044 60.1799 155.044H53.2828C52.3398 155.044 51.5759 154.28 51.5759 153.337V93.623C51.5759 92.68 52.3398 91.916 53.2828 91.916H60.1799C61.1219 91.917 61.8868 92.681 61.8868 93.623Z" fill="#89AEFF"/>
<path d="M84.4589 110.738V153.337C84.4589 154.28 83.6948 155.044 82.7518 155.044H75.8549C74.9119 155.044 74.1478 154.28 74.1478 153.337V110.738C74.1478 109.795 74.9119 109.031 75.8549 109.031H82.7518C83.6938 109.031 84.4589 109.795 84.4589 110.738Z" fill="#89AEFF"/>
<path d="M103.201 93.623V153.337C103.201 154.28 102.437 155.044 101.494 155.044H94.5969C93.6539 155.044 92.8899 154.28 92.8899 153.337V93.623C92.8899 92.68 93.6539 91.916 94.5969 91.916H101.494C102.437 91.917 103.201 92.681 103.201 93.623Z" fill="#89AEFF"/>
<path d="M125.773 123.212V153.337C125.773 154.28 125.009 155.044 124.066 155.044H117.169C116.226 155.044 115.462 154.28 115.462 153.337V123.212C115.462 122.269 116.226 121.505 117.169 121.505H124.066C125.009 121.505 125.773 122.27 125.773 123.212Z" fill="#89AEFF"/>
<path d="M144.516 110.738V153.337C144.516 154.28 143.752 155.044 142.809 155.044H135.912C134.969 155.044 134.205 154.28 134.205 153.337V110.738C134.205 109.795 134.969 109.031 135.912 109.031H142.809C143.751 109.031 144.516 109.795 144.516 110.738Z" fill="#89AEFF"/>
<path d="M43.1439 126.471V153.336C43.1439 154.279 42.3799 155.043 41.4369 155.043H34.5399C33.5969 155.043 32.8329 154.279 32.8329 153.336V126.471C32.8329 125.528 33.5969 124.764 34.5399 124.764H41.4369C42.3799 124.765 43.1439 125.529 43.1439 126.471Z" fill="#D2DCFF"/>
<path d="M61.8868 115.209V153.337C61.8868 154.28 61.1229 155.044 60.1799 155.044H53.2828C52.3398 155.044 51.5759 154.28 51.5759 153.337V115.209C51.5759 114.266 52.3398 113.502 53.2828 113.502H60.1799C61.1219 113.502 61.8868 114.266 61.8868 115.209Z" fill="#D2DCFF"/>
<path d="M84.4579 126.471V153.336C84.4579 154.279 83.6939 155.043 82.7509 155.043H75.8539C74.9109 155.043 74.1469 154.279 74.1469 153.336V126.471C74.1469 125.528 74.9109 124.764 75.8539 124.764H82.7509C83.6939 124.765 84.4579 125.529 84.4579 126.471Z" fill="#D2DCFF"/>
<path d="M103.201 115.209V153.337C103.201 154.28 102.437 155.044 101.494 155.044H94.5969C93.6539 155.044 92.8899 154.28 92.8899 153.337V115.209C92.8899 114.266 93.6539 113.502 94.5969 113.502H101.494C102.437 113.502 103.201 114.266 103.201 115.209Z" fill="#D2DCFF"/>
<path d="M125.773 134.68V153.336C125.773 154.279 125.009 155.043 124.066 155.043H117.169C116.226 155.043 115.462 154.279 115.462 153.336V134.68C115.462 133.737 116.226 132.973 117.169 132.973H124.066C125.009 132.974 125.773 133.738 125.773 134.68Z" fill="#D2DCFF"/>
<path d="M144.515 126.471V153.336C144.515 154.279 143.751 155.043 142.808 155.043H135.911C134.968 155.043 134.204 154.279 134.204 153.336V126.471C134.204 125.528 134.968 124.764 135.911 124.764H142.808C143.751 124.765 144.515 125.529 144.515 126.471Z" fill="#D2DCFF"/>
</svg>
